<svg width="199" height="99" fill="none" xmlns="http://www.w3.org/2000/svg"><path d="M198.425 0H0v98.41h198.425V0z" fill="#004982"/><path d="M101.754 67.084s1.021.178-.048.63c.002 0-7.044 2.837-16.25 2.837-8.88 0-19.326-3.83-21.233-14.736C62.438 45.588 71.317 30.2 92.36 21.692c0 0 16.596-6.707 30.363-2.041 0 0 12.551 3.823 11.171 17.148 0 0-.497 11.818-14.49 19.262 0 0-5.909 3.419-5.662-.404l1.39-11.515s.843-2.623-1.887-1.288c0 0-1.24.7-.993-.294 0 0 0-.151.647-.398l4.864-1.39s1.388-.548 1.093 1.535l-1.343 11.02s-.596 2.563 1.192 1.789c5.707-1.788 9.927-8.685 9.927-8.685 6.152-10.722 1.59-17.669 1.59-17.669-5.659-9.434-19.457-9.036-19.457-9.036-20.152 0-32.162 12.016-32.162 12.016C62.822 45.54 67.784 57.15 67.784 57.15c6.848 17.765 33.718 9.955 33.718 9.955l.253-.02z" fill="#fff"/><path d="M76.093 49.856c-.035-2.363 1.678-7.639 4.56-7.639 1.13 0 1.348.912 1.348 1.816 0 .658-.072 1.274-.217 1.898l-5.692 3.925zm8.339 3.711c-1.343 1.165-3.196 2.693-5.056 2.693-2.808 0-3.318-2.912-3.284-5.13 3.648-2.507 7.07-4.617 10.123-7.2.036-.294.11-.548.11-.843 0-.102-.038-.212-.182-.212-.295 0 0 .178-1.312.98v-.658c0-1.775-1.196-2.172-2.794-2.172-5.795 0-9.911 5.337-9.911 10.838 0 3.451 1.456 6.034 5.244 6.034 2.881 0 5.685-1.418 7.57-3.563l-.508-.767zM90.063 42.738c1.93-1.123 5.352-1.843 6.226-1.843.399 0 .546.069.546.72 0 1.377-.366 3.117-.62 6.18l.074.068c1.236-2.912 3.713-6.967 6.944-6.967 1.845 0 2.393 1.843 2.393 3.364 0 1.568-1.055 9.39-1.048 10.11 0 .253 0 1.123.435 1.123.472 0 1.966-.802 2.476-1.055l.291.836c-1.421 1.192-4.842 2.247-6.152 2.247-.763 0-.763-1.452-.763-1.884 0-2.39 1.27-8.144 1.284-10.932 0-.623-.181-1.281-.983-1.281-1.456 0-2.73 2.123-3.278 3.151-1.817 3.31-2.147 5.234-2.91 10.5h-3.53c.58-4.32 1.673-11.343 1.673-13.028 0-.658 0-1.24-.51-1.24-.583 0-1.674.548-2.256.802l-.292-.87zM115.526 36.764c0-1.308 1.237-2.549 2.508-2.549.911 0 1.486.727 1.486 1.57 0 1.233-1.085 2.548-2.356 2.548-.946 0-1.638-.623-1.638-1.569zM129 78H69v3h60v-3z" fill="#fff"/></svg>