<svg xmlns="http://www.w3.org/2000/svg" viewBox="0 0 512 512" style="enable-background:new 0 0 512 512" xml:space="preserve"><title>jetbrains</title><path d="M31 31h450v450H31V31zm39.4 393.8h168.7v-28.1H70.4v28.1zm22.5-264.5h5.6c13.1-1.8 22.5-13.1 22.5-28.1v-45h-20.7v46.9c0 7.5-1.8 9.4-7.5 9.4s-9.4-1.9-11.3-5.6l-13.1 11.3c5.7 9.3 15.1 13.1 24.5 11.1zm93.7 0v-16.8h-39.4v-11.3H181v-16.8h-33.8v-11.3h39.4V87.2h-60v75h60v-1.9zm24.4 0h20.6v-56.2h22.5V87.2h-63.7V104h22.5v56.2H211zm-75 71.3c0-9.4-5.6-16.8-15-16.8 7.5-1.9 11.2-9.4 11.2-16.9 0-3.7-1.8-9.4-3.7-13.1-5.6-5.6-13.1-7.5-20.6-7.5H70.4v73.1h37.5c16.8-.1 28.1-7.5 28.1-18.8zm-46.8-37.5h13.1c5.6 0 9.4 1.9 9.4 5.6 0 5.6-3.7 7.5-9.4 7.5H89.2v-13.1zm0 39.4v-13.1h14.9c7.6 0 11.3 1.8 9.4 5.6 0 3.8-3.7 7.6-9.4 7.6H89.2zm138.7-56.2-28.1 65.6-11.3-16.9c9.4-3.7 15-13.1 15-22.5 0-5.6-1.8-13.1-5.6-16.8-7.5-7.6-16.8-9.4-24.3-9.4h-35.7v73.1h20.7v-22.5h9.4l15 22.5h33.7l5.6-13.1h28.1l5.6 13.1h22.5l-29.9-75h-20.7v1.9zm-56.3 35.6h-13.1V196h13.1c5.6 0 11.3 1.8 11.3 9.4 0 3.7-3.8 7.5-11.3 7.5zm73.1 9.3h-14.9l7.5-20.6 7.4 20.6zm35.7 28.2H301v-73.1h-20.6v73.1zm75-33.8-30-39.3h-18.7v73.1h20.7V211l31.9 41.2H376v-75h-20.6v39.4zm58.1-11.2c-9.4-1.9-13.1-3.7-13.1-7.6 0-1.8 1.9-3.7 7.6-3.7 7.5 0 14.9 3.7 20.6 7.6l11.3-15c-9.4-7.6-18.7-9.4-30-9.4-16.8 0-28.1 11.2-28.1 24.4 0 14.9 11.3 18.7 28.1 22.5 9.4 1.8 13.1 3.7 13.1 7.5 0 3.7-3.7 5.6-9.4 5.6-9.4 0-16.8-3.7-24.3-9.4L377.9 241c9.4 7.6 22.5 11.3 33.8 11.3 18.7 0 29.9-9.4 29.9-24.4 0-13.1-11.2-18.8-28.1-22.5z"/></svg>