<svg version="1.0" xmlns="http://www.w3.org/2000/svg" viewBox="0 0 3173 664"><path d="M315 34.1c-37.3 2.6-75.6 10.8-88.3 18.9-3.9 2.4-4.7 3.5-4.7 5.9 0 3.8 3.7 6.5 12.1 8.8 5.2 1.4 10.6 1.7 28.9 1.5 49-.3 87.7 4.2 112.8 12.9 18.9 6.7 25.2 13.3 25.2 26.6-.1 18.5-14 40.5-46.4 72.9-20.4 20.4-39.4 36.7-65.1 55.9-29.1 21.7-43.7 34.5-46.6 40.9-1.6 3.5-.4 7.1 2.9 8.5 10.5 4.4 54.4-15.2 97.7-43.6 66.3-43.5 111.3-93.2 120-132.7 2.3-10.2 1.7-24.7-1.4-32.6-7.6-19.9-33.2-34.4-72.2-40.9-23.4-3.9-48.2-4.9-74.9-3zM480 232.1c-38.4 4.2-65.7 16.1-80.4 35.2-13.5 17.5-12.3 38.6 3.9 66.6 9.8 16.9 22.6 33.5 60.2 77.6 27.5 32.4 32.1 38.1 39.3 48.8 15.6 23.4 16.3 40.4 2 47.7-16.2 8.3-41.4 10.9-140 14.5-23.4.9-43.8 2.4-48.5 3.6-5.7 1.5-8.5 4.4-8.5 9 0 7.6 8.2 11.1 35.2 15.3 86.7 13.4 161.6 12.1 200.7-3.5 29-11.6 45.2-34.6 42.1-59.6-3.1-24-20.8-49.7-82.1-119.5-33.8-38.5-42.9-53.3-42.9-70 0-11.2 5.1-16.9 18.9-21.2 15.8-4.9 30.1-6.3 85.4-8.1 45.8-1.5 52.7-2.3 57.4-6.7 6.8-6.4-2.3-14.9-21.2-19.7-8.8-2.2-33-6.4-50-8.7-13.3-1.8-59.5-2.7-71.5-1.3zM2400 312.6c-1.9.2-8 .9-13.5 1.5-12.2 1.2-30.4 5.2-40 8.6-37.4 13.5-60.8 41-73 85.7-3.9 14.5-28.5 131.4-28.5 135.7 0 6.8.7 6.9 31.6 6.9h27.1l3.2-15.3c1.7-8.3 4.8-23.5 6.9-33.7l3.9-18.5 76.1-.3 76.2-.2-.5 2.2c-.7 3-13.5 64.9-13.5 65.4 0 .2 12.3.4 27.3.4 24.8 0 27.5-.2 30.3-1.9 1.7-1 3.6-3.2 4.2-4.7 1.9-4.7 28-129 29.3-139.4 1.4-11.2.6-28.8-1.6-38-5.5-22.6-21.8-38.8-47.4-47-18.3-6-29.2-7.2-63.6-7.5-17-.2-32.6-.1-34.5.1zm56.8 42.3c14.6 4.3 22.4 10.1 27.1 20 2.4 5.2 2.6 6.6 2.6 19.6 0 11.7-.5 16.1-2.9 26.5-3.3 14.8-5.7 19.6-11.1 22.7l-4 2.3H2326l.5-2.3c.3-1.2 2.2-10.3 4.4-20.2 2.1-9.9 5.3-21.6 7-26 8.2-21.2 23-34.5 45.7-41 13.6-3.9 19.1-4.4 43.4-4.1 19.6.3 23.5.6 29.8 2.5zM2627.6 313.7c-.3 1-11.6 54-25.1 117.8-13.5 63.8-24.8 116.8-25.1 117.7-.5 1.7 5.2 1.8 110.4 1.8h111l.5-2.2c5.4-21.8 5.7-29 1.4-32.2-2.8-2.1-3.5-2.1-76.3-2.4-40.4-.1-73.4-.4-73.4-.6 0-.2 9.2-43.7 20.5-96.7s20.5-97.6 20.5-99.1c0-5.5-1.5-5.8-34.2-5.8-27.4 0-29.7.1-30.2 1.7zM2906.5 313.4c-3.8 1.6-8 6.5-9.4 10.8-1.1 3.3-48.1 224.1-48.1 225.9 0 .5 46.6.9 121 .9 66.6 0 121-.2 121-.5s1.1-5.7 2.5-12.1c3.4-15.5 3.3-19.8-.2-22.1-2.5-1.7-8.2-1.8-86.5-2.1-72.5-.2-83.8-.5-83.8-1.7 0-1.1 10-49.4 12.5-60.3l.5-2.2h145.7l2-2.3c1.4-1.5 2.9-6.3 4.7-15.2 3.1-15.5 3.2-17.1.7-18.5-1.3-.7-26.1-1-73.6-1h-71.7l.5-2.3c.3-1.2 3.4-15.6 6.8-32l6.3-29.7h81.2c56.8 0 82.1-.3 84.3-1.1 4.2-1.5 5.5-4.2 8.6-18.9 1.4-6.9 2.8-13.5 3.2-14.8l.5-2.2h-112.8c-91.6.1-113.5.3-115.9 1.4z"/><path d="M182.5 314.4c-45.1 5-81.5 13.9-91.5 22.2-3.9 3.3-3.9 6.5 0 9.8 6.4 5.3 19.5 6.7 57.5 5.9 80-1.7 127.2 8.9 138.6 30.9 3 5.8 3.7 18.9 1.5 27.5-5.1 19.5-19.9 40.8-45.8 65.9-41.1 39.9-100.8 75.3-127.6 75.8-6.3.1-7.6-.2-8.9-1.9-5.8-7.8 10.5-44 51.6-114.4 13.6-23.2 19.2-35.5 19.4-42.6.2-5.7-1.5-7.5-7.3-7.5-3.8 0-5.9.8-10.7 3.9-7.9 5.1-14.7 13.2-34.4 40.8-35 48.9-60.1 88.6-82.7 130.4C23.9 594.8 18 608.4 18 616.5c0 6.2 1.5 7 12.4 6.8 33.5-.6 114.1-30.9 173.8-65.2C284 512.3 335 459.2 354.6 401.5c3.4-9.8 3.8-12.1 3.7-20.5 0-11.1-2.1-17.5-8.6-27.3-12.3-18.2-44.4-32-88.7-38.2-15.7-2.2-62.3-2.8-78.5-1.1zM871 314c-85.7 5.1-143.9 48.5-160.1 119.6-3.2 14-3.2 38.2 0 49.9 10.1 37.1 38.9 58.7 89.6 67.1 15.5 2.6 57.8 2.6 75 .1 59.5-9 103.3-37 125.8-80.6 18.3-35.4 21.4-74.1 8.3-101.6-6.7-13.9-15.9-24.3-29.2-33.1C955.5 319 916.1 311.3 871 314zm31 40.5c27.8 4.2 42.6 15.7 48.1 37.5 5.9 23.1-3.2 62.4-19.7 85.6-14.9 21-38.4 32.6-71.9 35.5-15.7 1.4-33.7.1-45.7-3.2-15.7-4.4-27-12.4-33-23.5-10.1-18.6-6.8-54.3 7.7-83.9 13.5-27.8 35-42.7 69-48 11-1.8 34.1-1.8 45.5 0zM1085 316.8c-2 .9-4.3 3.2-5.3 5.2-2.1 4.2-27.3 123.6-28.9 137-1.3 11.5-.5 30.3 1.7 38.5 2.4 8.7 8.1 19 14.3 25.6 12.1 13.1 30.5 21 59.5 25.6 14.4 2.3 73.6 2.6 88.7.5 65.1-9.3 96.6-34.4 112.9-90.2 3.4-11.6 29.1-132.6 29.1-136.9 0-1.6-.9-3.6-2.1-4.7-2-1.8-4.2-1.9-30.5-2.2-15.6-.2-28.4-.1-28.4.2 0 2.4-24.8 120-29.1 137.6-1.1 4.7-4.1 12.8-6.6 18-3.9 8.1-5.9 10.8-13.2 18-6.4 6.4-10.5 9.5-16.1 12.2-16.8 8.3-35.5 11.4-61.5 10.5-37.5-1.4-54-11.7-56.9-35.8-1-8.4.8-20 9-57.9 6.4-29.5 21.4-101.3 21.4-102.6 0-.2-12.3-.4-27.2-.4-24 0-27.7.2-30.8 1.8zM1402.7 316.4c-5.3 1.4-9 4.4-10.6 8.4-.9 2.2-6.1 25.2-6.1 26.8 0 .2 58.5.3 129.9.2l130-.3 2.8-2.1c1.5-1.2 3.6-3.4 4.5-5 1.5-2.6 6.8-24.4 6.8-28 0-1.2-17.8-1.4-126.2-1.3-99.6 0-127.3.3-131.1 1.3zM1760 316.1c-42.7 2.5-61.9 13.3-70 39.4-2.9 9.3-3 20.1-.1 27.5 6.5 17.1 24.2 29.9 95.6 69.5 45.6 25.2 49.4 27.8 52.6 35.1 4.2 9.5-2.3 21.1-14.1 25-5.1 1.7-11.6 1.9-81 2.4l-75.5.5-4.3 2.5c-5.8 3.3-7.6 6.7-10.1 18.5-1.2 5.5-2.3 11-2.6 12.2l-.5 2.3h88.7c88.2 0 102.6-.4 120.3-3.6 29.1-5.1 46-17.4 53.5-38.9 6.8-19.5 2.9-36.1-11.9-51-11.8-11.9-23.3-18.5-96.1-55.3-27.7-14-36.1-19.8-39.5-26.7-2.1-4.3-2.2-5.1-1.1-10.1 1.4-6 4.7-9.5 10.9-11.5 2.6-.8 23.3-1.4 70.2-1.8l66.5-.6 3.6-2.2c4.8-3 7.4-8.6 9.9-20.8 1.2-5.5 2.3-10.8 2.6-11.8.5-1.6-3.6-1.7-77.3-1.6-42.8.1-83.4.5-90.3 1zM2085.2 316.1c-39.4 3.8-71.1 17.7-95.2 41.9-20.4 20.4-31.9 42.5-38.7 75-2.4 11-2.7 14.8-2.7 31.5 0 17.9.2 19.5 2.8 28 9.5 30.9 31.5 47.9 72.1 55.7 10.5 2 14.5 2.1 93.1 2.5 66.9.3 82.2.2 82.6-.9.3-.7 1.6-6.5 2.8-12.8 2.7-13.3 2.2-15.8-4-19.4-3.4-2-5.2-2.1-73.5-2.7-53.3-.4-71-.8-74-1.8-16.5-5.4-27.3-17.1-32.2-35.3-2.6-9.5-2.3-32.1.5-45.5 7.6-35.4 24.6-61.4 47.6-72.7 14.6-7.2 11.6-6.9 87.6-7.6 70.9-.6 71.8-.7 78.7-4.9 4.4-2.7 6.1-6.6 9.3-20.3l2.7-11.8-75.6.1c-41.6.1-79.3.5-83.9 1zM1484.1 371.4c-.6.7-9.6 41.3-19.9 90.2l-18.8 88.9 27 .3c25.6.2 27.1.1 31.3-1.9 8-3.9 7.6-2.5 26.3-91 9.3-44.2 17-81.5 17-82.9 0-4.9-.4-5-32.1-5-24 0-29.9.3-30.8 1.4z"/></svg>